<svg id="Calque_1" data-name="Calque 1" xmlns="http://www.w3.org/2000/svg" xmlns:xlink="http://www.w3.org/1999/xlink" viewBox="0 0 496 101"><defs><style>.cls-1{fill:none;}.cls-2{fill:#eca10d;}.cls-3{fill:#cccbcb;}.cls-4{clip-path:url(#clip-path);}</style><clipPath id="clip-path"><path id="Polygone_5" data-name="Polygone 5" class="cls-1" d="M244.27,15.3a3.92,3.92,0,0,1,5.3-1.4,3.16,3.16,0,0,1,1.4,1.4l10.8,18.4a4,4,0,0,0,2.4,1.8l20.3,5.1a3.84,3.84,0,0,1,2.8,4.7,4.13,4.13,0,0,1-.7,1.5l-13.7,16.9a4.39,4.39,0,0,0-.9,2.7l1.6,22a3.9,3.9,0,0,1-3.5,4.2,4.22,4.22,0,0,1-1.9-.3L249.27,84a4.15,4.15,0,0,0-3.1,0l-18.9,8.2a3.81,3.81,0,0,1-5.1-2,3.08,3.08,0,0,1-.3-1.9l1.6-22a3.32,3.32,0,0,0-.9-2.7l-13.7-16.9a4,4,0,0,1,.6-5.5,2.63,2.63,0,0,1,1.5-.7l20.3-5.1a4,4,0,0,0,2.4-1.8Z"/></clipPath></defs><path id="Polygone_1" data-name="Polygone 1" class="cls-2" d="M40.7,15.3A3.92,3.92,0,0,1,46,13.9a3.16,3.16,0,0,1,1.4,1.4L58.2,33.7a4,4,0,0,0,2.4,1.8l20.3,5.1a3.84,3.84,0,0,1,2.8,4.7,4.13,4.13,0,0,1-.7,1.5L69.3,63.7a4.39,4.39,0,0,0-.9,2.7l1.6,22a3.9,3.9,0,0,1-3.5,4.2,4.22,4.22,0,0,1-1.9-.3L45.7,84a4.15,4.15,0,0,0-3.1,0L23.7,92.2a3.81,3.81,0,0,1-5.1-2,3.08,3.08,0,0,1-.3-1.9l1.6-22a3.32,3.32,0,0,0-.9-2.7L5.3,46.7a4,4,0,0,1,.6-5.5,2.63,2.63,0,0,1,1.5-.7l20.3-5.1a4,4,0,0,0,2.4-1.8Z"/><path id="Polygone_4" data-name="Polygone 4" class="cls-3" d="M343.1,15.3a3.92,3.92,0,0,1,5.3-1.4,3.16,3.16,0,0,1,1.4,1.4l10.8,18.4a4,4,0,0,0,2.4,1.8l20.3,5.1a3.84,3.84,0,0,1,2.8,4.7,4.13,4.13,0,0,1-.7,1.5L371.7,63.7a4.39,4.39,0,0,0-.9,2.7l1.6,22a3.9,3.9,0,0,1-3.5,4.2,4.22,4.22,0,0,1-1.9-.3L348.1,84a4.15,4.15,0,0,0-3.1,0l-18.9,8.2a3.81,3.81,0,0,1-5.1-2,3.08,3.08,0,0,1-.3-1.9l1.6-22a3.32,3.32,0,0,0-.9-2.7L307.7,46.7a4,4,0,0,1,.6-5.5,2.63,2.63,0,0,1,1.5-.7l20.3-5.1a4,4,0,0,0,2.4-1.8Z"/><g id="Groupe_5863" data-name="Groupe 5863"><path id="Polygone_5-2" data-name="Polygone 5" class="cls-3" d="M443.9,15.3a3.92,3.92,0,0,1,5.3-1.4,3.16,3.16,0,0,1,1.4,1.4l10.8,18.4a4,4,0,0,0,2.4,1.8l20.3,5.1a3.84,3.84,0,0,1,2.8,4.7,4.13,4.13,0,0,1-.7,1.5L472.5,63.7a4.39,4.39,0,0,0-.9,2.7l1.6,22a3.9,3.9,0,0,1-3.5,4.2,4.22,4.22,0,0,1-1.9-.3L448.9,84a4.15,4.15,0,0,0-3.1,0l-18.9,8.2a3.81,3.81,0,0,1-5.1-2,3.08,3.08,0,0,1-.3-1.9l1.6-22a3.32,3.32,0,0,0-.9-2.7L408.5,46.7a4,4,0,0,1,.6-5.5,2.63,2.63,0,0,1,1.5-.7l20.3-5.1a4,4,0,0,0,2.4-1.8Z"/></g><g id="Groupe_5863-2" data-name="Groupe 5863"><path id="Polygone_5-3" data-name="Polygone 5" class="cls-2" d="M141.5,15.3a3.92,3.92,0,0,1,5.3-1.4,3.16,3.16,0,0,1,1.4,1.4L159,33.7a4,4,0,0,0,2.4,1.8l20.3,5.1a3.84,3.84,0,0,1,2.8,4.7,4.13,4.13,0,0,1-.7,1.5L170.1,63.7a4.39,4.39,0,0,0-.9,2.7l1.6,22a3.9,3.9,0,0,1-3.5,4.2,4.22,4.22,0,0,1-1.9-.3L146.5,84a4.15,4.15,0,0,0-3.1,0l-18.9,8.2a3.81,3.81,0,0,1-5.1-2,3.08,3.08,0,0,1-.3-1.9l1.6-22a3.32,3.32,0,0,0-.9-2.7L106.1,46.7a4,4,0,0,1,.6-5.5,2.63,2.63,0,0,1,1.5-.7l20.3-5.1a4,4,0,0,0,2.4-1.8Z"/></g><g id="Groupe_5863-3" data-name="Groupe 5863"><path id="Polygone_5-4" data-name="Polygone 5" class="cls-3" d="M244.27,15.3a3.92,3.92,0,0,1,5.3-1.4,3.16,3.16,0,0,1,1.4,1.4l10.8,18.4a4,4,0,0,0,2.4,1.8l20.3,5.1a3.84,3.84,0,0,1,2.8,4.7,4.13,4.13,0,0,1-.7,1.5l-13.7,16.9a4.39,4.39,0,0,0-.9,2.7l1.6,22a3.9,3.9,0,0,1-3.5,4.2,4.22,4.22,0,0,1-1.9-.3L249.27,84a4.15,4.15,0,0,0-3.1,0l-18.9,8.2a3.81,3.81,0,0,1-5.1-2,3.08,3.08,0,0,1-.3-1.9l1.6-22a3.32,3.32,0,0,0-.9-2.7l-13.7-16.9a4,4,0,0,1,.6-5.5,2.63,2.63,0,0,1,1.5-.7l20.3-5.1a4,4,0,0,0,2.4-1.8Z"/></g><g class="cls-4"><rect class="cls-2" x="208.02" y="6.85" width="39.68" height="91.56"/></g></svg>