<svg id="SvgjsSvg1001" width="288" height="288" xmlns="http://www.w3.org/2000/svg" version="1.1" xmlns:xlink="http://www.w3.org/1999/xlink" xmlns:svgjs="http://svgjs.com/svgjs"><defs id="SvgjsDefs1002"></defs><g id="SvgjsG1008" transform="matrix(1,0,0,1,0,0)"><svg xmlns="http://www.w3.org/2000/svg" enable-background="new 0 0 309.8 387" viewBox="0 0 309.8 387" width="288" height="288"><path fill="#cc0070" d="M154.9,0c85-0.5,154.4,68,154.9,153c0,1.9,0,3.8-0.1,5.7c0,64.2-51.6,140.4-154.8,228.3			C51.7,299,0.1,222.9,0.1,158.7c-2.6-85,64.1-156,149.1-158.6C151.1,0,153,0,154.9,0z" class="color0c81c4 svgShape"></path><g transform="translate(-28.639 -27.597)" fill="#000000" class="color000 svgShape"><path fill="#ffffff" d="M236 197.8c-1.8 0-3.2 1.5-3.2 3.2v42.7c0 2.7-2.2 4.8-4.8 4.8h-41.2V218c0-1.8-1.4-3.2-3.2-3.2-1.8 0-3.2 1.4-3.2 3.2v30.6h-14v-32.9c0-2.7 2.2-4.8 4.8-4.8h24.8c2.7 0 4.8 2.2 4.8 4.8v26c0 1.8 1.4 3.2 3.2 3.2 1.8 0 3.2-1.4 3.2-3.2v-26c0-6.2-5.1-11.3-11.3-11.3h-24.8c-6.2 0-11.3 5.1-11.3 11.3v32.9h-20.8c-2.7 0-4.8-2.2-4.8-4.8v-42.6c0-1.8-1.4-3.2-3.2-3.2-1.8 0-3.2 1.4-3.2 3.2v42.7c0 6.2 5.1 11.3 11.3 11.3h88.9c6.2 0 11.3-5.1 11.3-11.3v-42.7C239.3 199.3 237.8 197.8 236 197.8 236 197.8 236 197.8 236 197.8zM242.1 174.3c-1.8 0-3.2 1.4-3.2 3.2 0 6.3-5.1 11.4-11.4 11.4-6.3 0-11.4-5.1-11.4-11.4 0 0 0 0 0 0 0-1.8-1.4-3.2-3.2-3.2-1.8 0-3.2 1.4-3.2 3.2 0 6.3-5.1 11.4-11.4 11.4-6.3 0-11.4-5.1-11.4-11.4 0 0 0 0 0 0 0-1.8-1.4-3.2-3.2-3.2-1.8 0-3.2 1.4-3.2 3.2 0 6.3-5.2 11.4-11.5 11.4s-11.4-5.2-11.4-11.5l0 0c0-1.8-1.4-3.2-3.2-3.2-1.8 0-3.2 1.4-3.2 3.2 0 6.3-5.1 11.4-11.4 11.5s-11.4-5.1-11.5-11.4v-11.9l12-27.7h86.7l10.3 23.8h-99c-1.8 0-3.2 1.4-3.2 3.2 0 1.8 1.4 3.2 3.2 3.2h61.7 21.4c11.5 0 16.5 0 19.1-.1s3.3-.1 3.8-.7c.6-.5 1.1-1.3 1.2-2.1l0 0c.1-.6 0-1.1-.7-2.8-.7-1.7-2.1-5-5-11.6-1.8-4.2-4.4-10.1-7.7-17.7-.5-1.2-1.7-2-3-2h-90.9c-1.3 0-2.5.8-3 2L122 163.7l0 0c-.3.6-.3.6-.2 6.6 0 1.8 0 4.1 0 7.1 0 9.9 8 17.9 17.9 17.9 5.8 0 11.3-2.8 14.7-7.6 5.7 8.1 16.8 10.1 24.9 4.4 1.7-1.2 3.2-2.7 4.4-4.4 5.7 8.1 16.8 10 24.9 4.4 1.7-1.2 3.2-2.7 4.4-4.4 5.7 8.1 16.8 10 24.9 4.4 4.8-3.3 7.6-8.8 7.6-14.6C245.3 175.6 243.9 174.2 242.1 174.3z" class="colorfff svgShape"></path></g></svg></g></svg>