<svg id="SvgjsSvg1031" width="288" height="288" xmlns="http://www.w3.org/2000/svg" version="1.1" xmlns:xlink="http://www.w3.org/1999/xlink" xmlns:svgjs="http://svgjs.com/svgjs"><defs id="SvgjsDefs1032"></defs><g id="SvgjsG1033"><svg xmlns="http://www.w3.org/2000/svg" enable-background="new 0 0 32 26.3" viewBox="0 0 32 26.3" width="288" height="288"><path fill="none" d="M2.9,0.3h26.1v26.1H2.9V0.3z"></path><path fill="#5e5e5e" d="M22.5,22.1H7.3V6.9h9.8V4.7H7.3c-1.2,0-2.2,1-2.2,2.2v15.3c0,1.2,1,2.2,2.2,2.2h15.3
	c1.2,0,2.2-1,2.2-2.2v-9.8h-2.2V22.1z M14,18.7l-2.1-2.6l-3,3.8h12L17,14.8L14,18.7z M24.7,4.7V1.4h-2.2v3.3h-3.3c0,0,0,2.2,0,2.2
	h3.3v3.3c0,0,2.2,0,2.2,0V6.9H28V4.7H24.7z" class="color0c81c4 svgShape"></path></svg></g></svg>