<?xml version="1.0" encoding="utf-8"?>
<!-- Generator: Adobe Illustrator 25.2.1, SVG Export Plug-In . SVG Version: 6.00 Build 0)  -->
<svg version="1.1" id="Calque_1" xmlns="http://www.w3.org/2000/svg" xmlns:xlink="http://www.w3.org/1999/xlink" x="0px" y="0px"
	 viewBox="0 0 32 26.3" style="enable-background:new 0 0 32 26.3;" xml:space="preserve">
<style type="text/css">
	.st0{fill:#717070;}
</style>
<g id="Groupe_2331">
	<path id="Tracé_2673" class="st0" d="M26.7,3.4H5.3c-1.6,0-2.9,1.3-2.9,2.9c0,0,0,0,0,0V20c0,1.6,1.3,2.9,2.9,2.9c0,0,0,0,0,0
		h21.4c1.6,0,2.9-1.3,2.9-2.9V6.3C29.6,4.7,28.3,3.4,26.7,3.4z M27.7,14.7l-6.1-6.1c-0.4-0.4-1-0.4-1.4,0l-8.1,8.1l-3.2-3.2
		c-0.4-0.4-1-0.4-1.4,0l-3.2,3.2V6.3c0-0.5,0.4-1,1-1c0,0,0,0,0,0h21.4c0.5,0,1,0.4,1,1l0,0V14.7z"/>
</g>
</svg>
