<svg id="SvgjsSvg1045" width="288" height="288" xmlns="http://www.w3.org/2000/svg" version="1.1" xmlns:xlink="http://www.w3.org/1999/xlink" xmlns:svgjs="http://svgjs.com/svgjs"><defs id="SvgjsDefs1046"></defs><g id="SvgjsG1047"><svg xmlns="http://www.w3.org/2000/svg" width="288" height="288" version="1.0" viewBox="0 0 512 512"><g transform="matrix(.1 0 0 -.1 0 512)" fill="#5e5e5e" class="color000 svgShape"><path d="M2385 4900 c-444 -33 -869 -193 -1233 -464 -137 -102 -366 -331 -468-468 -516 -692 -614 -1592 -259 -2379 114 -254 266 -472 479 -685 454 -453
1015 -686 1656 -686 641 0 1202 233 1656 686 371 371 587 800 665 1321 42 280
24 633 -47 910 -240 941 -1038 1642 -1994 1754 -130 15 -333 20 -455 11z m365
-430 c307 -32 606 -138 859 -303 894 -587 1139 -1785 546 -2672 -636 -951
-1952 -1139 -2830 -403 -741 620 -902 1708 -372 2517 394 600 1091 934 1797
861z" fill="#5e5e5e" class="color000 svgShape"></path><path d="M2460 4028 c-25 -14 -58 -44 -75 -67 l-30 -43 -3 -705 c-2 -699 -2
-707 19 -747 25 -50 627 -657 684 -691 120 -70 272 -11 311 122 18 62 12 111
-21 168 -13 22 -148 164 -299 315 l-276 275 0 621 0 621 -23 44 c-36 68 -93
103 -175 107 -56 3 -74 0 -112 -20z" fill="#5e5e5e" class="color000 svgShape"></path></g></svg></g></svg>