<?xml version="1.0" encoding="utf-8"?>
<!-- Generator: Adobe Illustrator 25.0.0, SVG Export Plug-In . SVG Version: 6.00 Build 0)  -->
<svg version="1.1" id="Calque_1" xmlns="http://www.w3.org/2000/svg" xmlns:xlink="http://www.w3.org/1999/xlink" x="0px" y="0px"
	 viewBox="0 0 49 49" style="enable-background:new 0 0 49 49;" xml:space="preserve">
<style type="text/css">
	.st0{fill:#0081C7;}
	.st1{fill:#FFFFFF;}
</style>
<g>
	<g id="SvgjsG1008_1_" transform="matrix(1,0,0,1,0,0)">
		<path class="st0" d="M24.5,0C35.3-0.1,44,8.6,44.1,19.4c0,0.2,0,0.5,0,0.7c0,8.1-6.5,17.8-19.6,28.9C11.4,37.9,4.9,28.2,4.9,20.1
			C4.6,9.3,13,0.3,23.8,0C24,0,24.3,0,24.5,0z"/>
		<g transform="translate(-28.639 -27.597)">
			<path class="st1" d="M59.8,49.1c-0.2,0-0.4,0.2-0.4,0.4V55c0,0.3-0.3,0.6-0.6,0.6h-5.2v-3.9c0-0.2-0.2-0.4-0.4-0.4
				s-0.4,0.2-0.4,0.4v3.9H51v-4.2c0-0.3,0.3-0.6,0.6-0.6h3.1c0.3,0,0.6,0.3,0.6,0.6v3.3c0,0.2,0.2,0.4,0.4,0.4
				c0.2,0,0.4-0.2,0.4-0.4v-3.3c0-0.8-0.6-1.4-1.4-1.4h-3.1c-0.8,0-1.4,0.6-1.4,1.4v4.2h-2.6c-0.3,0-0.6-0.3-0.6-0.6v-5.4
				c0-0.2-0.2-0.4-0.4-0.4s-0.4,0.2-0.4,0.4V55c0,0.8,0.6,1.4,1.4,1.4h11.3c0.8,0,1.4-0.6,1.4-1.4v-5.4C60.2,49.3,60,49.1,59.8,49.1
				L59.8,49.1z M60.6,46.2c-0.2,0-0.4,0.2-0.4,0.4c0,0.8-0.6,1.4-1.4,1.4s-1.4-0.6-1.4-1.4l0,0c0-0.2-0.2-0.4-0.4-0.4
				s-0.4,0.2-0.4,0.4c0,0.8-0.6,1.4-1.4,1.4c-0.8,0-1.4-0.6-1.4-1.4l0,0c0-0.2-0.2-0.4-0.4-0.4s-0.4,0.2-0.4,0.4
				c0,0.8-0.7,1.4-1.5,1.4s-1.4-0.7-1.4-1.5l0,0c0-0.2-0.2-0.4-0.4-0.4S49,46.3,49,46.6c0,0.8-0.6,1.4-1.4,1.5
				c-0.8,0-1.4-0.6-1.5-1.4v-1.5l1.5-3.5h11l1.3,3H47.4c-0.2,0-0.4,0.2-0.4,0.4s0.2,0.4,0.4,0.4h7.8h2.7c1.5,0,2.1,0,2.4,0
				s0.4,0,0.5-0.1c0.1-0.1,0.1-0.2,0.2-0.3l0,0c0-0.1,0-0.1-0.1-0.4c-0.1-0.2-0.3-0.6-0.6-1.5c-0.2-0.5-0.6-1.3-1-2.2
				c-0.1-0.2-0.2-0.3-0.4-0.3H47.4c-0.2,0-0.3,0.1-0.4,0.3l-1.7,3.9l0,0c0,0.1,0,0.1,0,0.8c0,0.2,0,0.5,0,0.9c0,1.3,1,2.3,2.3,2.3
				c0.7,0,1.4-0.4,1.9-1c0.7,1,2.1,1.3,3.2,0.6c0.2-0.2,0.4-0.3,0.6-0.6c0.7,1,2.1,1.3,3.2,0.6c0.2-0.2,0.4-0.3,0.6-0.6
				c0.7,1,2.1,1.3,3.2,0.6c0.6-0.4,1-1.1,1-1.8C61,46.3,60.8,46.2,60.6,46.2z"/>
		</g>
	</g>
</g>
</svg>
