<?xml version="1.0" encoding="utf-8"?>
<!-- Generator: Adobe Illustrator 26.0.2, SVG Export Plug-In . SVG Version: 6.00 Build 0)  -->
<svg version="1.1" id="Calque_1" xmlns="http://www.w3.org/2000/svg" xmlns:xlink="http://www.w3.org/1999/xlink" x="0px" y="0px"
	 viewBox="0 0 54 54" style="enable-background:new 0 0 54 54;" xml:space="preserve">
<style type="text/css">
	.st0{fill:none;}
	.st1{fill:#FFFFFF;}
</style>
<path id="Tracé_5296" class="st0" d="M2.1,2.1h49.7v49.7H2.1V2.1z"/>
<path id="Tracé_5297" class="st1" d="M27,6.3C15.5,6.3,6.3,15.6,6.3,27S15.6,47.7,27,47.7c11.4,0,20.7-9.3,20.7-20.7
	C47.7,15.6,38.5,6.3,27,6.3C27,6.3,27,6.3,27,6.3z M27,43.6c-9.2,0-16.6-7.4-16.6-16.6S17.8,10.4,27,10.4c9.2,0,16.6,7.4,16.6,16.6
	c0,0,0,0,0,0C43.6,36.1,36.2,43.6,27,43.6C27,43.6,27,43.6,27,43.6L27,43.6z M28,16.6h-3.1v12.4l10.9,6.5l1.6-2.5L28,27.5L28,16.6z"
	/>
</svg>
