<?xml version="1.0" encoding="utf-8"?>
<!-- Generator: Adobe Illustrator 26.0.2, SVG Export Plug-In . SVG Version: 6.00 Build 0)  -->
<svg version="1.1" id="Calque_1" xmlns="http://www.w3.org/2000/svg" xmlns:xlink="http://www.w3.org/1999/xlink" x="0px" y="0px"
	 viewBox="0 0 54 54" style="enable-background:new 0 0 54 54;" xml:space="preserve">
<style type="text/css">
	.st0{fill:none;}
	.st1{fill:#FFFFFF;}
</style>
<path id="Tracé_5310" class="st0" d="M2.7,2.9h48.2v48.2H2.7V2.9z"/>
<path id="Tracé_5311" class="st1" d="M10.7,24c-1.7,0-3,1.3-3,3c0,1.7,1.3,3,3,3s3-1.3,3-3C13.7,25.3,12.4,24,10.7,24
	C10.7,24,10.7,24,10.7,24z M10.7,11.9c-1.7,0-3,1.3-3,3c0,1.7,1.3,3,3,3c1.7,0,3-1.3,3-3C13.7,13.3,12.4,11.9,10.7,11.9
	C10.7,11.9,10.7,11.9,10.7,11.9z M10.7,36c-1.7,0-3,1.3-3,3c0,1.7,1.3,3,3,3s3-1.3,3-3c0,0,0,0,0,0C13.7,37.4,12.4,36,10.7,36z
	 M16.7,41.1h28.1v-4H16.7V41.1z M16.7,29h28.1v-4H16.7V29z M16.7,12.9v4h28.1v-4L16.7,12.9z"/>
</svg>
