<?xml version="1.0" encoding="utf-8"?>
<!-- Generator: Adobe Illustrator 26.0.2, SVG Export Plug-In . SVG Version: 6.00 Build 0)  -->
<svg version="1.1" id="Calque_1" xmlns="http://www.w3.org/2000/svg" xmlns:xlink="http://www.w3.org/1999/xlink" x="0px" y="0px"
	 viewBox="0 0 54 54" style="enable-background:new 0 0 54 54;" xml:space="preserve">
<style type="text/css">
	.st0{fill:none;}
	.st1{fill:#FFFFFF;}
</style>
<path id="Tracé_5308" class="st0" d="M2.4,2.4h49.1v49.1H2.4V2.4z"/>
<path id="Tracé_5309" class="st1" d="M41.3,8.6h-2V4.5h-4.1v4.1H18.8V4.5h-4.1v4.1h-2c-2.3,0-4.1,1.8-4.1,4.1c0,0,0,0,0,0l0,28.7
	c0,2.3,1.8,4.1,4.1,4.1c0,0,0,0,0,0h28.7c2.3,0,4.1-1.8,4.1-4.1V12.7C45.4,10.4,43.6,8.6,41.3,8.6z M41.3,41.3H12.7V20.9h28.7V41.3z
	 M37.2,27H27v10.2h10.2V27z"/>
</svg>
