<?xml version="1.0" encoding="utf-8"?>
<!-- Generator: Adobe Illustrator 26.0.2, SVG Export Plug-In . SVG Version: 6.00 Build 0)  -->
<svg version="1.1" id="Calque_1" xmlns="http://www.w3.org/2000/svg" xmlns:xlink="http://www.w3.org/1999/xlink" x="0px" y="0px"
	 viewBox="0 0 54 54" style="enable-background:new 0 0 54 54;" xml:space="preserve">
<style type="text/css">
	.st0{fill:none;}
	.st1{fill:#FFFFFF;}
</style>
<g id="post_add-24px" transform="translate(0.22 0.22)">
	<g id="Groupe_6533">
		<rect id="Rectangle_403" x="-0.2" y="-0.2" class="st0" width="54" height="54"/>
	</g>
	<g id="Groupe_6535" transform="translate(6.695 4.463)">
		<g id="Groupe_6534">
			<path id="Tracé_5388" class="st1" d="M31.2,38.4H4.5V11.2h15.6V6.7H4.5C2,6.7,0,8.7,0,11.2v26.8c0,2.5,2,4.5,4.5,4.5h26.8
				c2.5,0,4.5-2,4.5-4.5V22.3h-4.5V38.4z"/>
			<path id="Tracé_5389" class="st1" d="M35.7,0h-4.5v6.7h-6.7c0,0,0,4.5,0,4.5h6.7v6.7c0,0,4.5,0,4.5,0v-6.7h6.7V6.7h-6.7L35.7,0z
				"/>
			<rect id="Rectangle_404" x="9.1" y="15.3" class="st1" width="18" height="5"/>
			<path id="Tracé_5390" class="st1" d="M8.9,22.3v4.5h17.9v-4.5H8.9z"/>
			<rect id="Rectangle_405" x="9.1" y="29.3" class="st1" width="18" height="4"/>
		</g>
	</g>
</g>
</svg>
