<?xml version="1.0" encoding="utf-8"?>
<!-- Generator: Adobe Illustrator 26.0.2, SVG Export Plug-In . SVG Version: 6.00 Build 0)  -->
<svg version="1.1" id="Calque_1" xmlns="http://www.w3.org/2000/svg" xmlns:xlink="http://www.w3.org/1999/xlink" x="0px" y="0px"
	 viewBox="0 0 54 54" style="enable-background:new 0 0 54 54;" xml:space="preserve">
<style type="text/css">
	.st0{fill:none;}
	.st1{fill:#FFFFFF;}
</style>
<g id="Groupe_6390">
	<path id="Tracé_5302" class="st0" d="M5.5,5.5h42.9v42.9H5.5V5.5z"/>
</g>
<g id="Groupe_6392" transform="translate(3.578 3.578)">
	<g id="Groupe_6391">
		<path id="Tracé_5303" class="st1" d="M40.3,22.4L24.5,6.6c-0.7-0.7-1.6-1-2.5-1H9.1c-2,0-3.6,1.6-3.6,3.6v12.8
			c0,0.9,0.4,1.9,1.1,2.5l15.8,15.8c1.4,1.4,3.7,1.4,5.1,0l12.8-12.8C41.7,26,41.7,23.8,40.3,22.4C40.3,22.4,40.3,22.4,40.3,22.4z
			 M24.9,37.7L9.1,21.9V9.1h12.8l15.8,15.8L24.9,37.7z"/>
		<circle id="Ellipse_112" class="st1" cx="14.6" cy="15.1" r="2"/>
	</g>
</g>
<g id="link-24px" transform="translate(29.188) rotate(45)">
	<path id="Tracé_5314" class="st0" d="M-3.1,0h41.3v41.3H-3.1V0z"/>
	<path id="Tracé_5315" class="st1" d="M26.1,12h-6.9v3.4h6.9c2.8,0,5.2,2.2,5.2,5.1s-2.2,5.2-5.1,5.2c0,0-0.1,0-0.1,0h-6.9v3.4h6.9
		c4.7,0,8.6-3.9,8.6-8.6C34.7,15.9,30.9,12,26.1,12z M15.8,25.8H8.9c-2.8,0-5.1-2.4-5.1-5.2c0-2.8,2.3-5,5.1-5.1h6.9V12H8.9
		c-4.7,0-8.6,3.9-8.6,8.6c0,4.7,3.9,8.6,8.6,8.6h6.9L15.8,25.8z M10.7,18.9h13.8v3.4H10.7V18.9z"/>
</g>
</svg>
