<?xml version="1.0" encoding="utf-8"?>
<!-- Generator: Adobe Illustrator 26.0.2, SVG Export Plug-In . SVG Version: 6.00 Build 0)  -->
<svg version="1.1" id="Calque_1" xmlns="http://www.w3.org/2000/svg" xmlns:xlink="http://www.w3.org/1999/xlink" x="0px" y="0px"
	 viewBox="0 0 54 54" style="enable-background:new 0 0 54 54;" xml:space="preserve">
<style type="text/css">
	.st0{fill:#FFFFFF;}
</style>
<path id="Tracé_9505" class="st0" d="M45.7,20.5h-9L28.6,8.3c-0.4-0.5-0.9-0.8-1.6-0.8c-0.6,0-1.2,0.3-1.6,0.8l-8.2,12.2h-9
	c-1,0-1.9,0.8-1.9,1.9c0,0.2,0,0.3,0.1,0.5l4.7,17.3c0.4,1.6,1.9,2.7,3.6,2.7h24.3c1.7,0,3.2-1.1,3.6-2.7l4.7-17.3l0.1-0.5
	C47.6,21.4,46.7,20.5,45.7,20.5z M27,12.7l5.2,7.9H21.8L27,12.7z M39.2,39.2l-24.3,0l-4.1-15h32.5L39.2,39.2z M27,28
	c-2.1,0-3.7,1.7-3.7,3.7c0,2.1,1.7,3.7,3.7,3.7s3.7-1.7,3.7-3.7l0,0C30.7,29.7,29.1,28,27,28z"/>
</svg>
